<svg xmlns="http://www.w3.org/2000/svg" width="242.62566mm" height="120.45156mm" viewBox="0 0 242.62566 120.45156"><defs><linearGradient id="a" x1="1349.0684" x2="1349.0684" y1="-1090.3315" y2="-119.27184" gradientTransform="matrix(0 .07474 -.07474 0 68.262 81.263)" gradientUnits="userSpaceOnUse"><stop offset="0" stop-color="#737138" style="stop-color:#804a23;stop-opacity:1"/><stop offset="0.0334604" stop-color="#7a783b" style="stop-color:#945b33;stop-opacity:1"/><stop offset="0.0835618" stop-color="#8d8b43" style="stop-color:#b77937;stop-opacity:1"/><stop offset="0.10429" stop-color="#9b9849" style="stop-color:#ba843b;stop-opacity:1"/><stop offset="0.16671" stop-color="#a3a04c" style="stop-color:#c4903b;stop-opacity:1"/><stop offset="0.28492" stop-color="#a5a24d" style="stop-color:#d18f3e;stop-opacity:1"/><stop offset="0.53945" stop-color="#a29f4c" style="stop-color:#c9823a;stop-opacity:1"/><stop offset="0.71092" stop-color="#999748" style="stop-color:#b6793e;stop-opacity:1"/><stop offset="0.85743" stop-color="#8a8842" style="stop-color:#a66639;stop-opacity:1"/><stop offset="0.98993" stop-color="#757339" style="stop-color:#9a5e3a;stop-opacity:1"/><stop offset="1" stop-color="#737138" style="stop-color:#7f4c28;stop-opacity:1"/></linearGradient></defs><path d="M159.625 92.386c-8.974 0-19.421 3.799-28.39 10.663-5.294 1.28-12.167 3.812-20.974 8.015-13.177 6.293-22.027 9.433-35.4 10.62-13.372 1.186-18.095-7.473-18.488-8.456-.396-.984-1.378.786-.592 5.9.787 5.111 5.704 8.653 7.868 10.03 2.164 1.378 3.735 2.948 2.36 4.13-1.376 1.181-3.345.189-3.345-.983 0-1.171-.589-2.36-1.573-2.951-.985-.59-3.736-.188-3.736 3.147s5.703 7.277 19.666 3.934c13.963-3.344 26.945-11.406 35.599-17.11a69.151 69.151 0 0 1 6.7-3.868 51.133 51.133 0 0 0-6.111 11.733c-5.496 15.114-1.2 29.84 6.714 40.231l-.302.175c-16.521 9.702-28.06 13.896-41.304 18.225-13.244 4.327-35.657 8.391-53.76 6.424a99.32 99.32 0 0 1-7.169-1.037c1.338-4.567 2.288-10.687 2.327-18.761.036-7.778-.069-14.226.089-19.344 10.916-1.425 20.577-5.186 26.66-11.687 7.604-8.129 6.818-16.435-.438-21.593-7.256-5.157-15.297-5.848-21.507-5.417-6.212.43-16.943 3.572-22.376 5.685-4.747 1.846-7.861 2.362-9.507 2.207-1.435-.134-1.956-.992-2.093-.754-.337.59-2.55 22.324-2.216 22.586.334.263 4.717-4.807 8.741-7.692 4.024-2.884 11.886-6.906 20.805-8.654 8.92-1.746 16.346 1.133 16.871 5.156.525 4.025-1.224 10.841-13.018 13.463-.507.114-.998.212-1.477.3a23.78 23.78 0 0 1 .647-3.359c1.51-5.375 4.196-8.13 4.917-8.85.72-.721 1.049-.984-.064-.854-1.114.13-6.165.853-10.556 4.459a23.165 23.165 0 0 0-6.292 8.267c-2.066-.793-2.97-1.887-3.172-2.322-.435-.963.228-3.03 2.274-3.236.873-.087.612-1.05-2.798-2.01-3.41-.96-8.13.263-10.052 4.37-1.698 3.612 1.132 9.31 11.508 10.405a38.313 38.313 0 0 0-.586 5.963c-.244 10.411.02 20.875-.566 28.614a56.926 56.926 0 0 1-5.042-2c0-5.374-3.892-10.622-11.828-10.754-8.331-.125-17.248 6.89-17.248 17.053s6.686 20.388 19.93 20.388 19.865-9.57 22.684-13.899c14.017 4.085 32.436 5.849 51.595 1.698 29.109-6.293 46.679-16.78 60.84-25.7l.407-.26a38.582 38.582 0 0 0 4.85 3.454c14.16 8.455 37.165 6.882 48.38 1.18 11.213-5.705 16.718-12.97 14.162-19.074-2.556-6.096-16.52-9.833-34.222-6.686-17.702 3.147-28.122 8.452-28.122 8.452s-5.507-10.621-6.098-21.24c-.59-10.622 4.327-30.076 13.375-32.445l.062-.019c2.683-.443 4.13-.104 5.32 1.43-.47 3.457.767 6.821 9.958 6.652 10.62-.189 16.52-5.899 19.274-9.833 2.754-3.934 2.556-14.161-14.16-14.161zm-4.325 7.598c1.297-.011 2.613.176 3.8.708 3.798 1.704 3.537 4.717 1.832 6.164-1.706 1.447-3.802 3.277-6.884 2.49-.526-.134-1.376-1.048-1.376-1.048 1.18-2.49-.919-5.638-5.245-5.376-1.577.094-.394-1.05 1.18-1.573 1.079-.362 3.84-1.341 6.693-1.365zm11.086 59.72c6.945.042 11.79 2.648 11.986 5.107.263 3.28-5.245 8.916-17.178 8.916-13.898 0-21.371-4.983-21.371-4.983 0-.656 8.26-5.506 19.011-8.13 2.688-.655 5.237-.925 7.552-.91zm-181.424 29.25c.962 0 1.834.324 2.366.896 1.395 1.509 1.77 4.656-1.049 5.442-.445.124-.59.393.263.918.852.524 3.474 2.23 7.545.655 2.308-.892 3.833-2.292 4.793-4.365 1.509.839 3.18 1.658 4.971 2.442-2.004 5.353-6.141 9.335-12.194 9.335-8 0-12.13-4.262-11.672-9.899.316-3.875 2.863-5.428 4.977-5.424z" style="fill:#ec1d26;fill-opacity:1;stroke-width:.264583" transform="translate(28.609 -92.386)"/><path d="M105.648 135.018a2.627 2.627 0 0 0-.522.056c-.963.176-3.41.087-7.17 4.717-2.622-.962-4.545.174-5.33.436-.789.262-.789.35-1.134.612-.345.263-.087.174.614.436.7.263 1.398 1.225 1.398 4.547 0 3.323-.273 20.466-.36 23.517-.087 3.05-1.487 6.384-2.974 7.257-.377.22-.087.437.524.437.612 0 4.896-.787 7.17-4.458 2.098.96 3.934.874 4.983.349 1.049-.524 1.049-.787 1.32-1.05.271-.261.262-.087-.35-.786-.614-.7-1.939-2.012-2.108-6.556-.17-4.544.17-17.57.358-20.717.189-3.147.611-4.983 1.573-6.206.963-1.225 1.399-1.924 1.836-2.185.329-.197.509-.394.172-.406zm-16.092 6.313c-.067-.012-.175.043-.347.191-.458.394-3.207 2.227-3.54 2.36-.335.132-.787-.133-2.427 0-1.64.132-5.833.525-9.056 5.112-3.222 4.59-2.36 9.966.983 13.9 3.343 3.933 6.426 7.278 4.852 9.768-1.573 2.491-2.95 2.885-4.59 1.443-1.639-1.44-.382-3.666.206-3.87.453-.15.395-.326 0-.588-.394-.262-1.244-.985-3.867-.46-2.623.524-4.794 3.475-4.064 7.08.62 3.111 4.326 8.196 13.242 4.786 8.916-3.408 10.423-13.177 6.95-17.898-3.473-4.72-6.753-6.752-6.097-9.308.656-2.556 4.064-2.492 5.44-1.698 1.378.795 1.698 1.442 1.968 1.698.27.254.393-.19.327-.919-.066-.73.132-10.62.132-11.078 0-.287 0-.498-.112-.519zm18.785 3.765a.45.45 0 0 0-.12.031c-.327.13-2.688 1.31-3.277 1.573-.588.263-.722.46-.722 1.246v3.146c0 .787.198 1.049.852.854.656-.197 2.361-1.18 3.02-1.51.658-.33.72-.72.72-1.114l-.002-3.408c0-.573-.201-.846-.472-.818zm-47.748 5.353a8.143 8.143 0 0 0-1.148.054c-3.737.46-5.507 1.575-7.867 3.671-.917-1.246-2.49-1.697-4.262-1.639-1.772.06-2.425.787-2.753.983-.328.197-.328.329.13.395.458.065 2.097 1.573 2.097 4.588s-.46 22.815-.525 24.322c-.066 1.508-.588 3.476-1.836 4.328-.484.33-.459.72.524.787.984.066 4.196-.263 6.037-2.032 3.345 1.311 5.377 1.311 6.295 1.113.917-.198 1.31-.393.59-.917-.72-.525-2.688-1.311-2.688-5.049 0-3.737.131-18.488.262-19.798.13-1.31 1.905-2.754 3.603-2.425 1.699.327 2.753 2.031 2.295 4.325-.459 2.294-1.246 3.476-2.69 3.542-1.442.066-1.376-.395-1.639-.722-.262-.326-.786.327-.916 3.148-.13 2.82 2.426 4.528 4.982 4.459 2.556-.071 8.588-1.773 9.244-11.54.595-8.851-5.757-11.514-9.735-11.593zm47.748 2.186a.45.45 0 0 0-.12.03c-.327.133-2.688 1.312-3.276 1.574-.59.262-.723.46-.723 1.247v3.147c0 .787.198 1.05.852.85.656-.198 2.361-1.178 3.02-1.508.658-.33.72-.722.72-1.115v-3.4c-.001-.58-.203-.853-.473-.825zm-71.978.41c-2.556 0-4.528.721-5.637 1.442-1.11.72-2.098.132-3.019-.458-.92-.59-3.539-.854-4.458-.59-.918.262-1.311.328-.262.852 1.049.525 1.698 2.427 1.698 4.528 0 0-.328 18.553-.394 22.42-.066 3.867-2.543 4.601-3.2 4.671-.655.064-.916-.066-.458.327.459.391 1.442 1.573 3.933 1.968 2.491.394 4.459-1.378 4.459-1.378s2.426 2.48 7.408 2.48c6.294 0 8.13-5.31 8.458-7.735.328-2.427-.657-5.049-2.951-6.294-2.293-1.246-4.261-.189-4.917.189-.654.377-.918.523 0 .786.92.262 1.51 1.573 1.51 3.279 0 1.705-2.164 2.688-4 1.574-1.835-1.116-1.573-4.917-1.048-8.064 1.967.188 5.245.262 7.146-2.098 1.902-2.36 1.573-5.05 1.698-5.64.125-.59-.064-1.048-.525-.328-.46.722-1.9 1.378-3.67 1.378-1.772 0-4.851-.329-4.59-2.885.263-2.556 3.06-2.95 4.96-2.623 1.901.329 3.006.995 3.499 1.476.544.534.588.23.654-.164.043-.259.329-7.735.329-8.26 0-.524-.329-.722-.658-.46-.327.263-1.178.787-1.637.591-.459-.196-1.771-.984-4.328-.984zM183.995 117.541c-1.443 0-2.49.787-2.884.917-.395.13-.263.132.656.395.919.261 3.019 2.098 2.36 6.294-.215 1.365-.427 3.15-.65 5.093a8.32 8.32 0 0 0-4.717.281c-3.54 1.312-4.326 4.196-4.326 4.196 0 .787-.262.263 1.05 0 1.31-.262 3.145.133 5.112 1.836.453.393 1.115.994 1.927 1.714a62.059 62.059 0 0 1-.617 3.793c-.916 4.59-1.698 6.689-3.8 7.605-.602.262-1.05.524.787.787 1.835.262 4.588.132 6.16-.787.92 1.574 3.41 3.409 4.46 3.541 1.048.132 1.18.13.523-.919-.631-1.01-1.75-4.095-1.596-9.245 1.685 1.191 3.453 2.265 5.138 2.957.489.202.976.378 1.459.533 1.886 6.429 4.905 12.128 9.555 14.149 5.113 2.23 7.21-1.31 8.26-2.753 1.049-1.441 1.572-3.28.786-2.886-.788.392-1.321.786-3.02.262-1.697-.525-3.541-1.574-6.425-6.95a29.77 29.77 0 0 1-.755-1.53 10.516 10.516 0 0 0 3.11-1.485c3.147-2.23 3.343-4.39 3.343-6.754a4.337 4.337 0 0 0-1.738-3.605c-.525-.427-.458-.46-.424.23.034.689-.394 5.409-6.426 4.884l-.32-.032c-1.364-4.44-2.413-8.91-2.957-10.852-.919-3.277-.656-7.08.393-7.342 1.049-.263 1.32-.393.656-.655s-.92-1.049-3.279-.918c-1.997.11-3.707.599-4.983 1.776a8.862 8.862 0 0 0-1.178-1.907c-1.968-2.493-4.197-2.623-5.64-2.623zm-14.738.3c-.127-.002-.257.001-.388.006-2.098.089-4.632 1.698-4.632 1.698-3.104-2.36-6.775-1.312-7.475-.699-.473.416-.612.567-.306.567s.7-.044 1.355.525c.655.567 1.443 1.792 1.486 4.238.044 2.448-.175 14.249-.393 18.664-.22 4.414-3.148 6.512-3.758 6.905-.612.392-.783.53-.425.663.35.13.565.48 2.754.306 2.188-.176 4.02-.962 5.813-2.317 1.398.962 3.714 2.622 8.301 2.011 4.586-.61 6.992-3.803 7.299-7.647.308-3.845-2.622-6.165-4.81-6.121-2.185.043-3.408 1.094-3.844 1.618-.436.525-.393.743 0 .7.395-.044 1.355-.131 1.747.698.393.83.132 1.923-1.32 2.361-1.453.437-2.884-.176-2.971-1.398-.087-1.223-.35-8.086-.044-12.544.305-4.459.743-5.726 1.836-7.124a5.104 5.104 0 0 1 2.928-1.835c.48-.133.566-.22.393-.352-.163-.123-1.634-.9-3.546-.923zm-22 1.493c-1.655-.018-3.55.304-5.692 1.047-5.328 1.849-9.527 6.207-11.188 13.987-1.66 7.78-.437 13.018 1.836 16.346 2.274 3.328 5.848 4.371 10.49 3.934 4.64-.438 9.876-5.07 11.801-10.927a35.487 35.487 0 0 0 1.222-17.22c-.72-4-3.507-7.113-8.47-7.167zm-3.07 9.176c2.63 0 3.762 2.361 3.323 8.22-.439 5.848-3.497 8.74-5.595 8.74-2.097 0-4.108-2.798-3.235-9.003.88-6.25 3.147-7.957 5.507-7.957zm46.357.461c.58 2.294 1.372 5.426 2.169 8.567a12.608 12.608 0 0 1-3.281-3.049c.368-2.103.776-4.045 1.112-5.518z" style="fill:#ec1d26;fill-opacity:1;stroke-width:.264583" transform="translate(28.609 -92.386)"/></svg>